# xmcd
#
# Track frame offsets:
#  150
#  15608
#  27046
#  41655
#  58899
#  89016
#  103277
#  113992
#  140987
#  161743
#
# Disc length: 2447 seconds
#
# Revision: 0
# Processed by: cddbd v1.5.1PL2 Copyright (c) Steve Scherf et al.
# Submitted via: Collectorz.com_Music_Collector 6.9
#
DISCID=91098d0a
DTITLE=Phil Edgeley - This Life
DYEAR=2005
DGENRE=Blues -  Blues Folk
TTITLE0=Gets You Down
TTITLE1=Cold World
TTITLE2=Smile
TTITLE3=Good Book
TTITLE4=Small Town
TTITLE5=Out Of Here
TTITLE6=Try To Love
TTITLE7=Bottle
TTITLE8=Old
TTITLE9=Need To Think
EXTD=
EXTT0=
EXTT1=
EXTT2=
EXTT3=
EXTT4=
EXTT5=
EXTT6=
EXTT7=
EXTT8=
EXTT9=
PLAYORDER=
